<svg xmlns="http://www.w3.org/2000/svg" width="35" height="35" viewBox="-5.5 -5.5 35 35"><path fill="#3B97D3" d="M10.472 26.012H4.358v-3.056h6.113v3.056m6.878-3.056h2.293v3.056h-6.113v-3.056h.306l-2.14-9.322-3.821.917c-.152.764-.458 1.375-.764 1.986-1.375 2.292-4.279 2.903-6.571 1.528s-2.903-4.279-1.528-6.572C.385 9.201 3.289 8.59 5.581 9.965c.612.306 1.07.917 1.376 1.375l3.82-.917-.917-3.82c-.61-.152-1.223-.458-1.834-.764C5.887 4.463 5.123 1.56 6.498-.733c1.375-2.292 4.279-2.903 6.572-1.528 2.292 1.375 2.903 4.279 1.527 6.571-.306.612-.917 1.07-1.375 1.376l4.127 17.27M4.358 11.952c-1.07-.764-2.598-.305-3.362.764-.764 1.07-.305 2.599.764 3.21 1.07.765 2.598.459 3.363-.764.611-1.07.306-2.599-.765-3.21m8.252-8.864c.766-1.07.307-2.599-.763-3.363S9.25-.58 8.485.49c-.612 1.07-.306 2.598.916 3.363 1.071.61 2.599.305 3.209-.765m.613 8.1c-.306-.152-.612-.152-.764.153-.153.306-.153.611.152.764.307.153.612.153.766-.153.304-.306.151-.611-.154-.764m12.531-4.279L15.82 9.201l.765 3.362 11.462-2.751.765-1.07-3.058-1.833m3.058 16.047h-6.114v3.056h6.114v-3.056m-27.51 0h-6.113v3.056h6.113v-3.056z"/></svg>