<svg xmlns="http://www.w3.org/2000/svg" width="35" height="35" viewBox="-5.5 -5.5 35 35"><path fill="#3B97D3" d="M8.735 25.97c2.81-1.104 2.195-4.151.774-6.077-1.405-1.973-3.347-3.33-5.305-4.64C2.816 14.368 1.537 13.263.511 12c-.442-.521-1.342-1.484-.426-1.674.931-.189 2.541.726 3.362 1.074 1.437.6 2.857 1.294 4.183 2.116l1.595-2.685C6.762 9.206 3.605 7.769.669 7.343c-1.673-.252-3.441.095-4.01 1.91-.505 1.563.3 3.142 1.216 4.374C.038 16.515 3.4 17.905 5.91 20.399c.537.521 1.184 1.136 1.5 1.862.332.693.252.741-.489.741-1.958 0-4.404-1.53-5.999-2.542l-1.594 2.686c2.414 1.483 6.455 3.802 9.407 2.824M26.242 1.344c.349-.347.349-.916 0-1.247L24.19-1.955c-.332-.332-.899-.332-1.232 0l-1.609 1.61 3.284 3.283m-13.924 7.357v3.283h3.283l9.709-9.708L20.418.586l-9.709 9.709z"/></svg>