<svg xmlns="http://www.w3.org/2000/svg" width="35" height="35" viewBox="-5.5 -5.5 35 35"><path fill="#3B97D3" d="M21.167 12c-1.381 0-2.5-1.119-2.5-2.5s1.119-2.5 2.5-2.5c1.38 0 2.5 1.119 2.5 2.5s-1.12 2.5-2.5 2.5m-5-6.667c-1.381 0-2.5-1.119-2.5-2.5s1.119-2.5 2.5-2.5c1.38 0 2.5 1.119 2.5 2.5s-1.12 2.5-2.5 2.5m-8.334 0c-1.381 0-2.5-1.119-2.5-2.5s1.119-2.5 2.5-2.5 2.5 1.119 2.5 2.5-1.119 2.5-2.5 2.5m-5 6.667c-1.381 0-2.5-1.119-2.5-2.5S1.452 7 2.833 7s2.5 1.119 2.5 2.5-1.119 2.5-2.5 2.5M12-3C3.715-3-3 3.715-3 12c0 8.284 6.715 15 15 15 1.38 0 2.5-1.12 2.5-2.5 0-.651-.251-1.233-.651-1.667-.382-.449-.631-1.033-.631-1.666 0-1.381 1.118-2.5 2.5-2.5h2.949c4.603 0 8.333-3.73 8.333-8.333C27 2.967 20.284-3 12-3z"/></svg>