<svg xmlns="http://www.w3.org/2000/svg" width="35" height="35" viewBox="-5.5 -5.5 35 35"><path fill="#3B97D3" d="M28.354 15.342l-1.578 1.579-3.158-3.158 1.579-1.579c.157-.157.315-.315.631-.315.158 0 .475.158.632.315l2.052 2.052c.159.317.159.789-.158 1.106m-15.315 8.843V27.5h3.314l9.633-9.631-3.158-3.158-9.789 9.474m-2.827-6.427l-3.095-3.727-4.342 5.574h10.453l4.011-3.869-2.685-3.568-4.342 5.59m-.331 6.427v-1.343l.079-.079H.407V.658h22.105v9.963l3.157-3.047V.658c0-1.737-1.406-3.158-3.157-3.158H.407C-1.33-2.5-2.75-1.079-2.75.658v22.105c0 1.752 1.421 3.158 3.158 3.158h9.474v-1.736z"/></svg>