<svg xmlns="http://www.w3.org/2000/svg" width="35" height="35" viewBox="-5.5 -5.5 35 35"><path fill="#3B97D3" d="M.547-2.5C-1.137-2.5-2.5-1.137-2.5.547v21.332c0 1.685 1.363 3.053 3.047 3.053h13.854c-.093-.502-.144-1.004-.144-1.526 0-1.034.185-2.068.532-3.053H.547L5.879 13.5l3.811 4.568 5.337-6.853 3.401 4.527c1.475-.963 3.205-1.485 4.978-1.485.522 0 1.024.052 1.526.144V.547c0-1.69-1.373-3.047-3.053-3.047H.547m21.332 19.811v4.568h-4.568v3.053h4.568V29.5h3.053v-4.568H29.5v-3.053h-4.568v-4.568h-3.053z"/></svg>