<svg xmlns="http://www.w3.org/2000/svg" width="50" height="50"><g fill="#cccccc"><path d="M38.098 1.182c-1.577.001-3.005.937-3.636 2.382H9.119c-.657 0-1.19.533-1.19 1.191V44.45c0 .658.533 1.191 1.19 1.191h1.985v1.984c0 .658.533 1.191 1.19 1.191h25.938c2.116-.005 3.831-1.719 3.835-3.835a.6093.6093 0 000-.135V5.152c0-2.193-1.776-3.97-3.969-3.97zm0 1.588c1.315 0 2.382 1.066 2.382 2.382v36.521a3.7857 3.7857 0 00-1.993-.794c-.99-.092-1.979.191-2.77.794V5.152c0-1.316 1.066-2.382 2.381-2.382zM9.517 44.054V5.152h24.612v38.902H9.517zm28.715 3.176h-25.54v-1.588h21.896c.101-.006.198-.025.294-.056.092-.025.18-.063.262-.111l.063-.048c.202-.139.354-.339.437-.57h.072v-.224-.056c.141-1.306 1.313-2.25 2.62-2.111 1.249.173 2.171 1.255 2.143 2.517 0 1.241-1.004 2.247-2.247 2.247z"/><path d="M22.219 20.237c0-.877-.711-1.588-1.588-1.588h-7.938c-.877 0-1.588.711-1.588 1.588v6.352c0 .877.711 1.587 1.588 1.587h7.938c.877 0 1.588-.71 1.588-1.587v-6.352zm-9.527 6.351v-6.352h7.938v6.352h-7.938zM23.808 18.649h8.733v1.588h-8.733zM23.808 22.619h8.733v1.588h-8.733zM23.808 26.588h5.558v1.587h-5.558zM31.746 31.351h-7.938c-.878 0-1.589.711-1.589 1.588v6.352c0 .877.711 1.588 1.589 1.588h7.938c.878 0 1.588-.711 1.588-1.588v-6.352c0-.877-.71-1.588-1.588-1.588zm0 7.94h-7.938v-6.352h7.938v6.352zM11.898 31.351h5.558v1.588h-5.558zM11.898 35.322h8.732v1.588h-8.732zM11.898 39.291h8.732v1.588h-8.732zM12.692 15.473h18.261c.876 0 1.588-.712 1.588-1.588v-3.97c0-.877-.712-1.588-1.588-1.588H12.692c-.877 0-1.588.711-1.588 1.588v3.97c0 .876.711 1.588 1.588 1.588zm0-5.557h18.261v3.97H12.692v-3.97z"/></g></svg>