<svg xmlns="http://www.w3.org/2000/svg" width="50" height="50"><g fill="#cccccc"><path d="M43.518 7.906h-27.54c-1.566 0-2.849 1.282-2.849 2.849v3.798H11.23c-1.567 0-2.849 1.282-2.849 2.849v3.799h-1.9c-1.566 0-2.849 1.282-2.849 2.849v15.195c0 1.566 1.282 2.85 2.849 2.85h27.541c1.566 0 2.85-1.283 2.85-2.85v-3.799h1.898c1.567 0 2.85-1.281 2.85-2.85v-3.797h1.898c1.567 0 2.85-1.283 2.85-2.85V10.755c-.001-1.567-1.283-2.849-2.85-2.849zM11.847 40.194l3.656-4.227 3.656 4.227h-7.312zm9.781 0l-1.899-2.23 3.846-4.75 5.224 6.98h-7.171zm13.343-.949c0 .521-.428.949-.949.949h-2.85l-6.837-9.117c-.19-.236-.428-.379-.761-.379-.284 0-.568.143-.759.379l-4.368 5.461-2.232-2.611c-.38-.428-1.092-.428-1.424 0l-5.413 6.268H6.48c-.521 0-.949-.428-.949-.949V24.05c0-.522.428-.949.949-.949h27.541c.521 0 .949.427.949.949v15.195zm4.749-6.649c0 .523-.428.949-.95.949h-1.898V24.05c0-1.567-1.283-2.849-2.85-2.849H10.279v-3.799c0-.522.428-.95.95-.95h27.54c.522 0 .95.427.95.95v15.194zm4.749-6.647c0 .522-.428.95-.951.95H41.62v-9.497c0-1.567-1.282-2.849-2.85-2.849H15.027v-3.798c0-.523.428-.951.95-.951h27.54c.523 0 .951.428.951.951v15.194z"/><path d="M11.229 25.949c-1.567 0-2.849 1.282-2.849 2.85 0 1.566 1.281 2.848 2.849 2.848 1.566 0 2.849-1.281 2.849-2.848 0-1.568-1.282-2.85-2.849-2.85zm0 3.798c-.522 0-.95-.426-.95-.947 0-.523.428-.951.95-.951s.95.428.95.951c.001.521-.427.947-.95.947z"/></g></svg>