<svg xmlns="http://www.w3.org/2000/svg" width="50" height="50"><g fill="#cccccc"><path d="M35.326 31.532c.25-.498.916-.666 1.415-.416s.665.916.416 1.414c-2.746 4.992-7.987 8.07-13.644 8.07-8.654 0-15.643-6.988-15.643-15.558 0-8.652 6.988-15.641 15.643-15.641 7.902 0 14.643 5.99 15.474 13.894l1.331-1.248a1.055 1.055 0 011.498 0 1.055 1.055 0 010 1.498l-2.995 2.995c-.417.416-1.082.416-1.497 0l-2.996-2.995a1.055 1.055 0 010-1.498 1.055 1.055 0 011.498 0l.998.998c-.914-6.572-6.656-11.564-13.311-11.564-7.488 0-13.563 6.073-13.563 13.561 0 7.406 6.074 13.478 13.563 13.478 4.909 0 9.401-2.662 11.813-6.988z"/><path d="M22.431 16.39c0-.583.499-1.082 1.083-1.082.582 0 .996.499.996 1.082v8.153l3.329 3.329c.416.416.416 1.082 0 1.496-.416.418-1.081.418-1.497 0l-3.578-3.577c-.166-.25-.333-.499-.333-.749V16.39z"/></g></svg>