<svg xmlns="http://www.w3.org/2000/svg" width="50" height="50"><g fill="#cccccc"><path d="M25.264 47.919c-3.819.021-7.636-.187-11.43-.624-2.951-.362-6.096-.87-9.102-2.112-.981-.403-1.283-.861-1.237-1.893a16.7607 16.7607 0 012.929-8.91 8.818 8.818 0 013.533-3.074c1.659-.771 3.364-1.504 5.014-2.215l2.462-1.063c.413-.292.985-.193 1.277.22.292.414.193.985-.22 1.277a.9052.9052 0 01-.338.147l-2.47 1.068c-1.636.706-3.327 1.435-4.968 2.195a7.018 7.018 0 00-2.809 2.461 14.9512 14.9512 0 00-2.617 7.971v.1l.128.056c2.814 1.159 5.83 1.646 8.64 1.984 3.719.43 7.461.634 11.206.614 4.189.018 8.373-.271 12.52-.867 2.339-.305 4.632-.891 6.83-1.745l.092-.042a.4327.4327 0 000-.072A15.3486 15.3486 0 0043.507 38c-1.031-2.563-2.506-4.262-4.505-5.211-1.563-.742-3.208-1.43-4.771-2.094-.798-.34-1.6-.68-2.393-1.023a.9141.9141 0 01-.232-1.274.9172.9172 0 01.947-.375c.789.344 1.586.679 2.379 1.013 1.594.674 3.24 1.375 4.84 2.127 2.42 1.174 4.188 3.167 5.39 6.164a17.1602 17.1602 0 011.333 6.008c.119.824-.391 1.607-1.191 1.834a31.032 31.032 0 01-7.25 1.865 88.012 88.012 0 01-12.79.885z"/><path d="M25.026 3.885a8.4433 8.4433 0 014.125 1.008c1.884 1.1 2.823 2.75 2.961 5.143.031.527.031 1.063.037 1.627v1.375c.033.669.324 1.299.811 1.759.061.195.086.398.078.601.078 1.609-.495 3.048-1.802 4.528-.332.388-.585.838-.742 1.324a7.4675 7.4675 0 01-2.292 3.548 5.0395 5.0395 0 01-3.207 1.302 5.145 5.145 0 01-3.337-1.403 7.5737 7.5737 0 01-2.163-3.438 3.9131 3.9131 0 00-.771-1.338c-1.306-1.49-1.875-2.928-1.787-4.533.005-.187.025-.372.06-.555.579-.465.876-1.197.789-1.934a11.37 11.37 0 01.28-3.639 2.48 2.48 0 01.619-1.182c.383-.382.638-.874.729-1.407.137-.887.757-1.625 1.608-1.911 1.263-.56 2.625-.86 4.005-.885m-.001-1.795c-1.632.029-3.241.385-4.734 1.044a4.2056 4.2056 0 00-2.631 3.241.752.752 0 01-.202.404c-.545.553-.93 1.246-1.109 2.002a13.0947 13.0947 0 00-.349 4.216c0 .143 0 .357-.091.426-.646.458-.715 1.173-.756 1.879-.119 2.264.771 4.147 2.232 5.812.184.212.325.458.417.724a9.2996 9.2996 0 002.686 4.221 6.8698 6.8698 0 004.519 1.833 6.8018 6.8018 0 004.372-1.719 9.2286 9.2286 0 002.823-4.367c.088-.251.223-.482.398-.683 1.467-1.664 2.359-3.543 2.25-5.807a2.4698 2.4698 0 00-.633-1.833.819.819 0 01-.256-.523c-.037-1.017 0-2.035-.056-3.047-.165-2.842-1.333-5.124-3.845-6.595a10.2815 10.2815 0 00-5.027-1.219l-.008-.009z"/></g></svg>