<svg version="1.1" id="Ebene_1" xmlns="http://www.w3.org/2000/svg" x="0" y="0" viewBox="0 0 750.13 305.29" xml:space="preserve"><style>.st0{fill:#0068a9}.st1{fill:#414042}</style><path class="st0" d="M61.95 8.17C36.23 41.2 22.24 83.42 22.24 134.3c0 49.98 14.59 95.59 40 126.53l17.92-14.11c-17.35-32.38-27.1-70.67-27.1-112.41 0-40.87 9.29-79.18 26.95-111.91L61.95 8.17z"/><path class="st1" d="M156.22 152.01c1.31 1.26 1.97 3.25 1.97 5.99 0 2.97-.94 4.94-2.82 5.9-1.88.97-5.68 1.45-11.38 1.45-4.11 0-17.85-.28-41.24-.85l-1.88 22.76c13.8 3.42 28.23 5.13 43.29 5.13 17.45 0 29.52-2.51 36.19-7.53 6.67-5.02 10.01-14.21 10.01-27.55 0-8.9-1.94-16.09-5.82-21.56-3.88-5.47-10.55-10.09-20.02-13.86l-21.73-8.38c-4.34-1.48-7.3-2.94-8.9-4.36-1.6-1.43-2.39-3.45-2.39-6.07 0-3.08.94-5.07 2.82-5.99 1.88-.91 5.56-1.37 11.04-1.37 6.04 0 19.16.17 39.35.51l2.05-21.05c-10.84-3.54-24.53-5.31-41.07-5.31-17.23 0-29.2 2.31-35.93 6.93-6.73 4.62-10.09 13.55-10.09 26.78 0 8.78 1.94 15.89 5.82 21.3 3.88 5.42 10.44 10.01 19.68 13.78l23.61 9.41c3.64 1.38 6.12 2.69 7.44 3.94M297.85 72.11H205v24.81h30.25v93.25h32.17V96.92h30.43zM414.63 72.11h-33.02l-16.03 39.87c-1.03 2.63-2.34 7.93-3.94 15.91h-2.05c-1.14-7.19-2.45-12.49-3.94-15.91l-16.03-39.87h-33.19l38.11 80.42v37.64h32.17v-37.81l37.92-80.25zM493.95 108.04c0 5.59-1.05 9.36-3.16 11.29-2.11 1.94-6.19 2.91-12.23 2.91h-15.4v-28.4h15.4c6.04 0 10.12.97 12.23 2.91 2.11 1.94 3.16 5.7 3.16 11.29m32.34-2.05c0-13.35-3.59-22.62-10.78-27.8-7.19-5.19-19.28-7.79-36.28-7.79-20.65 0-36.56.57-47.74 1.71v118.06h31.65v-44.49h14.54c3.31 0 5.79.63 7.44 1.88 1.65 1.26 2.88 3.59 3.68 7.02l8.38 35.59h33.71l-9.75-36.45c-2.17-10.49-8.21-16.54-18.14-18.14v-1.03c15.53-1.7 23.29-11.22 23.29-28.56M559.07 72.11h31.83v118.06h-31.83z"/><g><path class="st1" d="M684.03 138.84h-24.3l7.53-30.29c.8-3.88 1.59-7.98 2.39-12.32h4.62c.23 2.28.97 6.39 2.22 12.32l7.54 30.29zm45.85 51.33L697.72 80.49c-.69-2.51-2.03-4.54-4.02-6.07-2-1.54-4.31-2.31-6.93-2.31H657c-2.63 0-4.93.77-6.93 2.31s-3.28 3.56-3.85 6.07l-32.34 109.68h32.85l7.02-28.06h36.27l7.02 28.06h32.84z"/></g><g><path class="st0" d="M242.53 218.29c1.25 0 1.87.62 1.87 1.87v4.1c0 1.25-.62 1.87-1.87 1.87h-2.87c-1.25 0-1.87-.62-1.87-1.87v-4.1c0-1.25.62-1.87 1.87-1.87h2.87zm1.58 14.87v34.99h-6.04v-34.99h6.04zM260.64 233.16l.43 6.68.65 1.08v27.23h-6.11v-34.99h5.03zm14.65-.86c2.97 0 5.25.8 6.83 2.41s2.39 4.01 2.44 7.22v26.23h-5.89v-24.5c0-2.25-.46-3.84-1.37-4.78-.91-.93-2.28-1.4-4.1-1.4-1.2 0-2.36.19-3.48.57-1.13.38-2.37 1.01-3.74 1.87-1.37.86-3.03 2.01-4.99 3.45l-.43-4.31c2.54-2.25 5.01-3.94 7.4-5.07 2.4-1.13 4.84-1.69 7.33-1.69zm22.93 0c3.02 0 5.33.82 6.93 2.44 1.6 1.63 2.41 4.02 2.41 7.19v26.23h-6.04v-24.5c-.05-2.16-.48-3.72-1.29-4.71-.81-.98-2.2-1.47-4.17-1.47-1.25 0-2.43.2-3.56.61s-2.36 1.04-3.7 1.9c-1.34.86-2.97 1.99-4.89 3.38l-.36-4.31c2.54-2.25 5-3.94 7.4-5.07 2.4-1.13 4.82-1.69 7.27-1.69zM344.2 246.6l-.07 4.6-16.74.07c-1.68.05-2.85.49-3.52 1.33-.67.84-1.01 2-1.01 3.49v2.23c0 1.82.43 3.15 1.29 3.99.86.84 2.25 1.26 4.17 1.26 1.34 0 2.86-.25 4.56-.75 1.7-.5 3.41-1.28 5.14-2.33 1.72-1.05 3.31-2.39 4.74-4.02V261c-.53.67-1.28 1.45-2.26 2.33-.98.89-2.16 1.75-3.52 2.59-1.37.84-2.87 1.53-4.53 2.08-1.65.55-3.44.83-5.35.83-2.06 0-3.88-.37-5.46-1.11-1.58-.74-2.81-1.84-3.7-3.31-.89-1.46-1.33-3.24-1.33-5.35v-3.81c0-2.73.85-4.85 2.55-6.36 1.7-1.51 4.08-2.26 7.15-2.26h17.89zm-9.12-14.3c2.59 0 4.78.35 6.57 1.04 1.8.7 3.15 1.86 4.06 3.49.91 1.63 1.37 3.86 1.37 6.68v24.65h-4.81l-.93-7.62-.43-.79v-16.24c0-2.16-.49-3.7-1.47-4.63-.98-.93-2.86-1.4-5.64-1.4-1.82 0-4.11.1-6.86.29-2.75.19-5.47.41-8.16.65l-.57-4.53c1.63-.29 3.41-.55 5.35-.79 1.94-.24 3.92-.43 5.93-.57 1.99-.16 3.86-.23 5.59-.23zM361.95 252.28l3.52.5c-.82.72-1.37 1.59-1.65 2.62-.29 1.03-.2 1.98.25 2.84.45.86 1.42 1.41 2.91 1.65l13.08 2.08c3.3.48 5.6 1.51 6.9 3.09 1.29 1.58 1.94 3.83 1.94 6.75 0 2.73-.52 4.89-1.54 6.47-1.03 1.58-2.77 2.71-5.21 3.38-2.44.67-5.75 1.01-9.92 1.01-3.16 0-5.82-.18-7.98-.54s-3.89-.96-5.21-1.8c-1.32-.84-2.26-1.93-2.84-3.27-.57-1.34-.86-3.02-.86-5.03 0-1.53.23-2.81.68-3.84.46-1.03 1.17-1.95 2.16-2.77.98-.81 2.26-1.6 3.84-2.37l4.31-2.37 2.8 1.01-3.52 2.66c-.96.72-1.76 1.43-2.41 2.12-.65.7-1.13 1.44-1.44 2.23-.31.79-.47 1.74-.47 2.84 0 1.63.31 2.87.93 3.74.62.86 1.72 1.45 3.31 1.76 1.58.31 3.78.47 6.61.47 2.83 0 5.02-.17 6.58-.5 1.56-.34 2.65-.93 3.27-1.8.62-.86.93-2.08.93-3.67 0-1.2-.16-2.11-.47-2.73-.31-.62-.9-1.1-1.76-1.44-.86-.33-2.13-.62-3.81-.86l-12.58-1.72c-1.49-.19-2.67-.67-3.56-1.44-.89-.77-1.5-1.68-1.83-2.73-.34-1.05-.43-2.12-.29-3.2s.5-2.08 1.08-3.02c.6-.94 1.34-1.65 2.25-2.12zm9.92-19.98c3.74 0 6.69.38 8.87 1.15 2.18.77 3.74 1.96 4.67 3.59.93 1.63 1.4 3.76 1.4 6.4 0 2.54-.47 4.63-1.4 6.29-.94 1.65-2.5 2.87-4.71 3.67-2.21.79-5.17 1.19-8.91 1.19s-6.69-.4-8.87-1.19c-2.18-.79-3.74-2-4.67-3.63-.93-1.63-1.4-3.71-1.4-6.25 0-2.63.47-4.78 1.4-6.43s2.5-2.86 4.71-3.63c2.2-.78 5.17-1.16 8.91-1.16zm-.08 4.67c-3.5 0-5.93.49-7.29 1.47-1.37.98-2.05 2.65-2.05 4.99 0 2.3.68 3.95 2.05 4.96s3.8 1.51 7.29 1.51c3.55 0 5.99-.5 7.33-1.51s2.01-2.66 2.01-4.96c0-2.35-.67-4.01-2.01-4.99-1.34-.98-3.78-1.47-7.33-1.47zm19.12-3.81l-.36 3.38-8.91.72-2.52-4.1h11.79zM412.18 232.3c5.27 0 9.09.96 11.46 2.87 2.37 1.92 3.56 4.77 3.56 8.55.05 3.11-.6 5.54-1.94 7.29-1.34 1.75-3.47 2.62-6.39 2.62h-20.41v-4.74h18.83c1.58 0 2.61-.54 3.09-1.62s.72-2.26.72-3.56c-.05-2.25-.72-3.86-2.01-4.81-1.29-.96-3.5-1.44-6.61-1.44-2.54 0-4.54.37-6 1.11-1.46.74-2.49 2.04-3.09 3.88-.6 1.84-.9 4.42-.9 7.72 0 3.74.37 6.59 1.11 8.55.74 1.96 1.93 3.31 3.56 4.02 1.63.72 3.78 1.08 6.47 1.08 1.87 0 3.92-.08 6.14-.25 2.23-.17 4.23-.37 6-.61l.65 4.1c-1.1.43-2.46.79-4.06 1.08-1.61.29-3.26.5-4.96.65s-3.22.22-4.56.22c-4.02 0-7.26-.61-9.7-1.83s-4.23-3.19-5.35-5.89c-1.13-2.71-1.69-6.29-1.69-10.74 0-4.6.56-8.23 1.69-10.89s2.88-4.55 5.25-5.68c2.35-1.12 5.4-1.68 9.14-1.68zM466.86 217.71c2.35.05 4.77.17 7.26.36 2.49.19 4.98.55 7.47 1.08l-.43 4.6c-2.06-.09-4.34-.18-6.83-.25s-4.89-.11-7.19-.11c-1.77 0-3.29.06-4.56.18-1.27.12-2.31.41-3.13.86-.82.46-1.4 1.2-1.76 2.23-.36 1.03-.54 2.46-.54 4.28 0 2.73.49 4.63 1.47 5.71s2.57 1.88 4.78 2.41l10.06 2.51c3.83.91 6.45 2.5 7.87 4.78 1.41 2.28 2.12 5.33 2.12 9.16 0 2.87-.32 5.2-.97 6.97-.65 1.77-1.64 3.13-2.98 4.06-1.34.93-3.07 1.58-5.17 1.94-2.11.36-4.6.54-7.47.54-1.63 0-3.75-.07-6.36-.22-2.61-.14-5.62-.53-9.02-1.15l.43-4.67c2.83.1 5.1.18 6.83.25 1.72.07 3.21.11 4.46.11h3.88c2.54 0 4.54-.19 6-.57 1.46-.38 2.49-1.15 3.09-2.3.6-1.15.9-2.85.9-5.1 0-1.92-.22-3.4-.65-4.46-.43-1.05-1.11-1.86-2.05-2.41-.93-.55-2.12-.99-3.56-1.33l-10.27-2.59c-3.59-.91-6.12-2.49-7.58-4.74s-2.19-5.27-2.19-9.05c0-2.87.32-5.18.97-6.93.65-1.75 1.63-3.07 2.95-3.95 1.32-.89 2.98-1.47 4.99-1.76 2-.29 4.4-.44 7.18-.44zM527.14 218.58v5.6h-38.3v-5.6h38.3zm-16.02 0v49.58h-6.32v-49.58h6.32zM570.83 218.58v30.61c0 4.79-.58 8.65-1.72 11.57-1.15 2.92-3.02 5.04-5.6 6.36-2.59 1.32-6.06 1.98-10.42 1.98-4.46 0-8.02-.66-10.71-1.98-2.68-1.32-4.62-3.44-5.82-6.36-1.2-2.92-1.8-6.78-1.8-11.57v-30.61h6.32v30.61c0 3.55.37 6.36 1.11 8.44.74 2.08 1.98 3.57 3.7 4.46s4.02 1.33 6.9 1.33 5.16-.44 6.86-1.33c1.7-.89 2.93-2.37 3.7-4.46.77-2.08 1.15-4.9 1.15-8.44v-30.61h6.33zM600.65 217.93c3.54 0 6.55.43 9.02 1.29 2.47.86 4.46 2.28 5.96 4.24 1.51 1.96 2.61 4.58 3.31 7.83.69 3.26 1.04 7.28 1.04 12.07s-.35 8.81-1.04 12.07c-.7 3.26-1.8 5.87-3.31 7.83s-3.5 3.38-5.96 4.24c-2.47.86-5.47 1.29-9.02 1.29-3.4 0-6.55-.06-9.45-.18-2.9-.12-5.64-.28-8.23-.47l2.73-5.17c2.01.05 4.25.11 6.72.18 2.47.07 5.21.11 8.23.11 3.16 0 5.68-.61 7.54-1.83 1.87-1.22 3.2-3.28 3.99-6.18s1.19-6.86 1.19-11.89-.39-8.99-1.19-11.89c-.79-2.9-2.12-4.97-3.99-6.22s-4.38-1.87-7.54-1.87c-2.97 0-5.64.03-8.01.07-2.37.05-4.68.1-6.93.14l-2.73-5.03c2.59-.19 5.33-.35 8.23-.47 2.89-.1 6.03-.16 9.44-.16zm-11.36.65v49.58h-6.32v-49.58h6.32zM637 218.58v49.58h-6.32v-49.58H637zM667.25 217.64c3.59 0 6.65.43 9.16 1.29 2.51.86 4.53 2.29 6.04 4.28 1.51 1.99 2.61 4.63 3.31 7.94.69 3.3 1.04 7.38 1.04 12.21 0 4.84-.35 8.91-1.04 12.22-.7 3.3-1.8 5.95-3.31 7.94-1.51 1.99-3.52 3.41-6.04 4.28-2.52.86-5.57 1.29-9.16 1.29s-6.65-.43-9.16-1.29-4.54-2.29-6.07-4.28c-1.53-1.99-2.65-4.63-3.34-7.94-.69-3.31-1.04-7.38-1.04-12.22 0-4.84.35-8.91 1.04-12.21.69-3.31 1.81-5.95 3.34-7.94 1.53-1.99 3.56-3.41 6.07-4.28 2.52-.86 5.57-1.29 9.16-1.29zm0 5.68c-3.26 0-5.83.62-7.72 1.87-1.89 1.25-3.23 3.32-4.02 6.21-.79 2.9-1.19 6.89-1.19 11.96 0 5.03.4 9.01 1.19 11.93.79 2.92 2.13 5.01 4.02 6.25 1.89 1.25 4.47 1.87 7.72 1.87s5.83-.62 7.72-1.87c1.89-1.25 3.23-3.33 4.02-6.25.79-2.92 1.19-6.9 1.19-11.93 0-5.08-.4-9.06-1.19-11.96-.79-2.9-2.13-4.97-4.02-6.21-1.88-1.25-4.46-1.87-7.72-1.87z"/></g></svg>