<svg xmlns="http://www.w3.org/2000/svg" width="529" height="138"><g fill="#3B97D3"><path d="M44.758 53.802l-.813 1.742c-4.026 8.36-6.715 14.32-8.069 17.881-2.09 5.573-3.271 8.824-3.542 9.753-.813 2.594-1.877 3.89-3.193 3.89-.929 0-1.723-.426-2.38-1.277-.581-.735-.871-1.529-.871-2.38 0-3.328 4.276-13.836 12.83-31.523-1.548-1.161-2.322-2.322-2.322-3.483 0-.89.386-1.664 1.161-2.322.657-.542 1.373-.813 2.148-.813.542 0 1.257.136 2.148.406 6.308-11.997 10.004-19.641 11.088-22.931-.968.542-2.206 1.316-3.716 2.322-.852.542-1.606.813-2.264.813-.736 0-1.335-.367-1.8-1.103-.311-.502-.464-1.025-.464-1.567 0-1.819 1.567-3.773 4.702-5.863 2.516-1.664 4.856-3.057 7.024-4.18.349-.929.561-1.567.639-1.916.387-1.471.793-2.458 1.219-2.961.425-.502 1.083-.755 1.974-.755 1.819 0 2.729 1.007 2.729 3.019 2.67-.774 5.03-1.354 7.083-1.742 2.051-.386 3.792-.581 5.225-.581 3.754 0 6.928 1.432 9.521 4.296 2.438 2.709 3.657 5.748 3.657 9.115 0 5.844-2.438 11.689-7.314 17.532-4.18 4.955-9.367 8.824-15.559 11.611-5.341 2.361-10.682 3.542-16.023 3.542-1.277-.002-2.884-.176-4.818-.525zM61.013 18.39c-1.277 3.832-3.367 8.747-6.27 14.746-3.561 7.277-5.863 12.037-6.908 14.281 2.128.387 3.618.581 4.47.581 4.412 0 9.559-1.78 15.442-5.341 5.689-3.483 10.14-7.798 13.353-12.946 1.974-3.135 2.96-5.921 2.96-8.36 0-2.206-.746-3.86-2.235-4.963-1.49-1.103-3.745-1.655-6.763-1.655-2.284 0-4.596.3-6.938.9-2.342.599-4.712 1.518-7.111 2.757zM96.542 44.107c3.173 0 4.761 1.936 4.761 5.806 0 5.147-2.38 11.668-7.141 19.564-5.187 8.554-10.199 12.83-15.036 12.83-2.244 0-3.89-1.045-4.935-3.135-.542-1.045-.813-2.302-.813-3.774 0-4.954 1.704-10.333 5.109-16.139 3.173-5.379 6.909-9.559 11.205-12.54 2.515-1.741 4.798-2.612 6.85-2.612zm-6.038 21.945c-.968-.773-1.451-1.373-1.451-1.799 0-.31.619-1.161 1.858-2.555 3.483-3.909 5.225-7.063 5.225-9.463 0-.309-.097-.619-.29-.929-.311-.581-.794-.871-1.452-.871-1.239 0-3.058 1.2-5.457 3.599-3.097 3.097-5.457 6.29-7.083 9.579-1.896 3.754-2.845 6.87-2.845 9.347 0 .658.174 1.239.522 1.742.503.696 1.141 1.045 1.916 1.045 1.857 0 3.851-1.394 5.979-4.18.929-1.161 1.684-2.36 2.264-3.599.582-1.239.852-1.877.814-1.916zM123.13 65.704c-2.361 4.064-4.393 7.083-6.096 9.057-4.142 4.876-7.586 7.314-10.333 7.314-1.664 0-2.941-.909-3.832-2.729-.619-1.199-.929-2.457-.929-3.773 0-2.554 1.103-6.25 3.309-11.088 1.974-4.218 3.637-7.547 4.993-9.985 1.006-1.742 1.605-2.883 1.799-3.425.465-1.045.871-1.837 1.219-2.38.502-.813 1.199-1.219 2.09-1.219.465 0 .871.194 1.219.581.387.464.581 1.007.581 1.625 0 1.742-1.567 5.631-4.702 11.669-3.135 5.96-4.703 9.908-4.703 11.843 0 1.239.483 1.858 1.452 1.858 1.664 0 4.024-2.167 7.083-6.502 1.354-1.935 2.767-4.392 4.238-7.373-.039-.967-.058-1.703-.058-2.206 0-2.903.542-5.418 1.625-7.547 1.394-2.748 3.27-4.122 5.631-4.122 1.354 0 2.032.813 2.032 2.438 0 2.593-1.355 6.406-4.063 11.437.773.155 1.393.232 1.857.232 1.277 0 2.941-.813 4.993-2.438 1.625-1.315 2.689-1.974 3.193-1.974.426 0 .871.252 1.335.754.348.426.522.852.522 1.277 0 1.393-.968 2.961-2.903 4.703-2.245 1.974-4.799 2.96-7.663 2.96-1.122-.001-2.418-.329-3.889-.987zM150.823 72.67c-1.665 2.322-3.135 4.18-4.412 5.573-2.245 2.478-4.47 3.715-6.676 3.715-1.896 0-3.367-.851-4.412-2.554-.735-1.199-1.103-2.631-1.103-4.296 0-4.993 2.129-10.72 6.386-17.184 1.974-3.019 3.928-5.321 5.864-6.908 1.509-1.277 2.748-1.916 3.715-1.916.542 0 1.045.232 1.509.697.387.426.581.852.581 1.277 0 .736-.716 1.936-2.148 3.6-3.213 3.832-5.651 7.354-7.315 10.566-1.936 3.754-2.902 6.696-2.902 8.824 0 .542.125.958.377 1.248.251.29.61.436 1.074.436 1.974 0 4.721-2.825 8.244-8.476 1.819-2.941 3.386-6.192 4.702-9.753.697-1.935 1.606-3.658 2.729-5.167 1.083-1.354 2.148-2.032 3.193-2.032.581 0 1.103.252 1.567.754.502.542.754 1.142.754 1.8 0 1.394-1.335 4.528-4.005 9.405-1.82 3.367-2.729 6.174-2.729 8.418 0 2.4.639 4.451 1.916 6.154.349.464 1.413 1.2 3.193 2.206.851.503 1.277 1.316 1.277 2.438 0 .697-.3 1.297-.9 1.8-.601.503-1.326.755-2.177.755-1.936 0-3.697-.774-5.283-2.322-1.432-1.394-2.342-3.405-2.729-6.038-.078-.35-.174-1.356-.29-3.02zM186.526 45.559c3.057 0 4.586 1.606 4.586 4.819 0 2.826-1.103 5.67-3.309 8.534-1.704 2.168-3.193 3.251-4.47 3.251-1.084 0-1.625-.619-1.625-1.857 0-.658.154-1.18.464-1.567.116-.154.581-.6 1.393-1.335.697-.658 1.413-1.645 2.148-2.961.503-.89.755-1.605.755-2.148 0-.619-.348-.929-1.045-.929-.813 0-2.052.639-3.715 1.916-2.632 2.052-5.264 5.264-7.896 9.637-2.709 4.567-4.064 8.167-4.064 10.798 0 .852.251 1.606.755 2.264.735 1.007 1.722 1.51 2.961 1.51 2.438 0 5.321-1.51 8.65-4.528 2.825-2.593 5.205-5.186 7.141-7.779 1.006-1.432 1.877-2.148 2.612-2.148.426 0 .813.194 1.161.581.31.387.464.774.464 1.161 0 1.432-1.838 4.219-5.515 8.359-5.844 6.502-11.146 9.753-15.907 9.753-2.865 0-5.051-1.025-6.56-3.077-1.083-1.509-1.625-3.289-1.625-5.341 0-4.025 1.665-8.688 4.993-13.991 3.212-5.069 6.927-9.152 11.146-12.249 2.476-1.782 4.644-2.673 6.502-2.673zM213.231 46.778c.657 0 1.199.252 1.625.755.309.426.464.852.464 1.277 0 .696-.562 1.857-1.684 3.483-4.026 6.232-6.89 11.36-8.592 15.384-1.819 4.142-3.425 8.399-4.818 12.772-.619 1.936-1.586 2.903-2.903 2.903-.773 0-1.393-.31-1.857-.929-.426-.503-.639-1.045-.639-1.625 0-1.161 1.239-5.031 3.715-11.611 1.936-5.186 5.07-10.915 9.405-17.184 1.394-2.051 2.438-3.425 3.135-4.122.697-.735 1.413-1.103 2.149-1.103zm11.03-21.538c1.741 0 2.612.891 2.612 2.67 0 1.625-.852 3.425-2.555 5.399-1.625 1.896-3.193 2.844-4.702 2.844-.736 0-1.335-.27-1.8-.813-.464-.502-.697-1.122-.697-1.858 0-1.857 1.025-3.832 3.077-5.921 1.511-1.546 2.865-2.321 4.065-2.321zM253.404 62.22c3.251-3.405 6.114-6.076 8.592-8.011 3.754-2.903 6.271-4.354 7.547-4.354.619 0 1.161.232 1.626.696.426.427.639.891.639 1.394 0 .735-.678 1.936-2.032 3.599-2.09 2.632-3.541 4.876-4.354 6.734 9.056-9.094 15.248-13.643 18.577-13.643.696 0 1.296.213 1.8.639.541.464.813 1.045.813 1.742 0 1.084-.833 2.477-2.496 4.18-7.315 7.547-10.973 13.74-10.973 18.577 0 1.974.349 3.387 1.045 4.238l1.51 1.916c.31.349.464.794.464 1.335 0 .62-.252 1.2-.754 1.742-.581.619-1.239.929-1.975.929-1.276 0-2.458-.813-3.541-2.438-1.316-1.935-1.974-4.218-1.974-6.85 0-3.521 1.006-7.083 3.019-10.682.696-1.277 1.857-2.98 3.483-5.109-3.29 2.478-6.638 5.884-10.043 10.218-2.322 2.941-4.412 6.231-6.271 9.869-.891 1.742-1.936 2.612-3.135 2.612-1.316 0-1.974-.735-1.974-2.206 0-1.586 1.083-4.856 3.251-9.811 1.238-2.825 2.767-5.805 4.586-8.94-6.618 5.109-11.592 12.037-14.92 20.784-.813 1.936-1.896 2.902-3.251 2.902-.619 0-1.122-.232-1.509-.696-.425-.465-.639-1.025-.639-1.684 0-2.283 1.277-6.405 3.832-12.366 2.671-6.308 5.689-11.978 9.057-17.01 2.322-3.521 4.122-5.283 5.399-5.283 1.161 0 1.741.62 1.741 1.858 0 .542-.717 1.897-2.148 4.064-2.515 4.063-4.179 7.082-4.992 9.055zM290.152 70.406v1.045c0 .852.212 1.587.639 2.206.967 1.432 2.555 2.148 4.761 2.148 4.837 0 10.43-3.716 16.777-11.146 1.122-1.277 2.07-1.916 2.845-1.916.425 0 .813.213 1.161.639.232.31.348.601.348.871 0 1.509-1.857 4.063-5.573 7.663-2.902 2.826-5.999 5.128-9.288 6.908-3.29 1.781-6.348 2.67-9.173 2.67-2.902 0-5.186-1.006-6.851-3.019-1.122-1.394-1.684-3.289-1.684-5.689 0-6.54 3.077-12.946 9.231-19.216 4.992-5.109 9.347-7.663 13.062-7.663 1.006 0 1.916.31 2.729.929 1.006.813 1.51 1.878 1.51 3.193 0 2.052-.949 4.567-2.845 7.547-3.909 6.193-9.792 10.47-17.649 12.83zm1.278-4.528c2.708-.929 4.837-1.974 6.386-3.135 2.709-2.09 4.856-4.45 6.444-7.083.58-.929.87-1.761.87-2.496 0-.774-.368-1.161-1.103-1.161-1.007 0-2.438.754-4.296 2.264-3.329 2.671-6.095 6.541-8.301 11.611zM343.296 64.673c15.035-1.41 30.108-1.626 45.15-.182 15.73 1.51 31.765 3.321 47.356 5.874 13.878 2.272 27.157 6.529 37.517 16.406 3.788 3.611 6.798 7.969 9.564 12.384 2.771 4.424 6.566 10.638 5.501 16.103-.613 3.149 4.205 4.492 4.822 1.329 1.969-10.099-6.071-21.023-11.966-28.465-8.438-10.653-20.348-16.913-33.304-20.327-16.729-4.408-34.291-4.794-51.341-7.308-17.642-2.6-35.579-2.476-53.301-.814-3.18.299-3.209 5.302.002 5z"/><path d="M477.885 113.838c1.43 3.438 3.805 6.571 5.937 9.61 1.897 2.704 4.477 6.566 8.064 6.984 2.934.342 4.288-1.933 5.271-4.317 2.126-5.159 3.998-10.497 5.8-15.777-1.025.582-2.051 1.164-3.076 1.746.037.009.074.019.111.028l-1.746-3.075c-.037.241-.074.481-.111.722-.484 3.153 4.333 4.508 4.822 1.329.036-.241.073-.481.11-.722.203-1.319-.313-2.717-1.746-3.075-.037-.009-.074-.019-.11-.028-1.384-.346-2.628.434-3.076 1.746-1.867 5.477-3.56 11.534-6.237 16.673.24-.462-4.586-5.943-5.098-6.694-1.376-2.019-3.151-4.214-4.093-6.479-1.22-2.933-6.06-1.648-4.822 1.329z"/></g></svg>